<?xml version="1.0" encoding="utf-8"?>
<!-- Generator: Adobe Illustrator 16.0.0, SVG Export Plug-In . SVG Version: 6.00 Build 0)  -->
<!DOCTYPE svg PUBLIC "-//W3C//DTD SVG 1.1//EN" "http://www.w3.org/Graphics/SVG/1.1/DTD/svg11.dtd">
<svg version="1.1" id="Ebene_1" xmlns="http://www.w3.org/2000/svg" xmlns:xlink="http://www.w3.org/1999/xlink" x="0px" y="0px"
	 width="86.749px" height="27px" viewBox="0.583 0.509 86.749 27" enable-background="new 0.583 0.509 86.749 27"
	 xml:space="preserve">
<g>
	<path fill="#0060A8" d="M18.26,20.672c0,1.88-0.867,3.422-2.603,4.581c-1.689,1.156-4.002,1.735-6.99,1.735
		c-1.641,0-3.135-0.146-4.438-0.434C2.88,26.217,1.82,25.881,1,25.542v-4.869h0.53c0.339,0.191,0.676,0.434,1.061,0.674
		c0.386,0.242,0.917,0.531,1.639,0.821c0.579,0.239,1.302,0.432,2.075,0.626c0.771,0.192,1.592,0.29,2.506,0.29
		c1.157,0,1.977-0.145,2.554-0.388c0.58-0.289,0.82-0.674,0.82-1.155c0-0.435-0.144-0.771-0.481-0.964
		c-0.338-0.192-0.964-0.386-1.88-0.579c-0.434-0.096-1.012-0.241-1.735-0.338c-0.771-0.095-1.447-0.24-2.074-0.432
		c-1.639-0.435-2.894-1.11-3.711-2.026c-0.82-0.916-1.205-2.074-1.205-3.423c0-1.786,0.82-3.279,2.507-4.438
		c1.687-1.204,3.953-1.784,6.895-1.784c1.349,0,2.7,0.146,3.953,0.434c1.252,0.29,2.218,0.581,2.941,0.917v4.628H16.91
		c-0.866-0.579-1.88-1.061-2.988-1.447c-1.156-0.383-2.266-0.577-3.423-0.577c-0.965,0-1.736,0.145-2.411,0.386
		c-0.626,0.238-0.963,0.625-0.963,1.107c0,0.434,0.145,0.771,0.433,1.013c0.29,0.24,1.013,0.483,2.074,0.673
		c0.625,0.146,1.254,0.241,1.978,0.386c0.675,0.098,1.398,0.242,2.073,0.435c1.543,0.388,2.699,1.013,3.423,1.883
		C17.875,18.262,18.26,19.372,18.26,20.672"/>
	<path fill="#0060A8" d="M30.604,14.935h3.807c-0.048-1.254-0.337-2.168-0.917-2.796c-0.576-0.625-1.493-0.914-2.699-0.914h-0.191
		c-1.061,0-1.93,0.289-2.604,0.866c-0.722,0.58-1.157,1.544-1.253,2.845L30.604,14.935L30.604,14.935z M40.294,18.359h-9.691h-3.81
		c0.048,1.447,0.626,2.555,1.64,3.326c0.58,0.433,1.301,0.771,2.17,0.917c0.675,0.145,1.445,0.24,2.266,0.24
		c1.252,0,2.459-0.24,3.664-0.675c1.156-0.434,2.072-0.915,2.747-1.447h0.676v4.727c-1.35,0.531-2.604,0.915-3.808,1.156
		c-1.159,0.24-2.46,0.386-3.905,0.386c-0.578,0-1.11,0-1.64-0.047c-2.894-0.243-5.208-1.061-6.847-2.459
		c-1.977-1.641-2.942-4.002-2.942-7.088c0-3.039,0.917-5.45,2.796-7.233c1.737-1.639,4.051-2.507,6.992-2.652h0.675
		c2.989,0,5.255,0.772,6.749,2.266c1.495,1.496,2.266,3.712,2.266,6.556v2.027H40.294z"/>
	<path fill="#0060A8" d="M52.83,11.945c-1.012,0.192-1.831,0.675-2.458,1.399c-0.771,0.965-1.156,2.313-1.156,4
		c0,1.834,0.338,3.134,0.963,3.952c0.53,0.725,1.446,1.157,2.651,1.206h0.338c0.53,0,1.107-0.098,1.688-0.288
		c0.628-0.193,1.159-0.483,1.592-0.819v-9.018c-0.387-0.193-0.867-0.29-1.302-0.387c-0.48-0.094-0.868-0.094-1.252-0.094
		C53.504,11.899,53.167,11.899,52.83,11.945 M52.83,26.698c-0.674,0.193-1.446,0.289-2.313,0.289c-2.221,0-4.003-0.867-5.354-2.556
		c-1.349-1.736-2.024-4.097-2.024-6.99c0-1.593,0.24-2.941,0.675-4.195c0.434-1.207,1.06-2.219,1.88-3.087
		c0.723-0.82,1.64-1.445,2.699-1.928c1.063-0.435,2.123-0.676,3.184-0.676c0.434,0,0.868,0.049,1.252,0.097
		c0.578,0.049,1.062,0.145,1.446,0.29c0.725,0.193,1.446,0.53,2.171,0.869V1h5.931v25.505h-5.931v-1.929
		c-1.012,0.821-1.978,1.446-2.845,1.833C53.36,26.505,53.12,26.603,52.83,26.698"/>
	<path fill="#0060A8" d="M76.648,11.608c-0.53,0-1.061,0.097-1.495,0.24c-0.435,0.145-0.868,0.483-1.254,0.917
		c-0.385,0.435-0.673,1.014-0.866,1.736c-0.241,0.771-0.338,1.687-0.338,2.845c0,1.012,0.097,1.881,0.29,2.605
		c0.193,0.722,0.434,1.302,0.818,1.782c0.337,0.435,0.771,0.724,1.253,0.918c0.48,0.193,1.012,0.29,1.592,0.29
		c0.581,0,1.107-0.097,1.542-0.241c0.483-0.194,0.916-0.484,1.254-0.918c0.385-0.482,0.673-1.06,0.866-1.688
		c0.195-0.675,0.29-1.593,0.29-2.749c0-1.107-0.095-2.024-0.29-2.747c-0.193-0.723-0.481-1.301-0.817-1.737
		c-0.387-0.481-0.77-0.77-1.303-0.964C77.755,11.704,77.228,11.608,76.648,11.608 M76.648,27.086c-3.182,0-5.642-0.869-7.427-2.653
		c-1.734-1.733-2.651-4.096-2.651-7.135c0-3.038,0.917-5.45,2.651-7.185c1.785-1.737,4.292-2.604,7.427-2.604
		c3.181,0,5.688,0.867,7.426,2.604c1.736,1.783,2.653,4.146,2.653,7.185c0,3.037-0.917,5.401-2.653,7.135
		C82.289,26.216,79.829,27.086,76.648,27.086"/>
</g>
</svg>
